<?xml version="1.0" standalone="no"?>
<!DOCTYPE svg PUBLIC "-//W3C//DTD SVG 20010904//EN"
 "http://www.w3.org/TR/2001/REC-SVG-20010904/DTD/svg10.dtd">
<svg version="1.0" xmlns="http://www.w3.org/2000/svg"
 width="16.000000pt" height="16.000000pt" viewBox="0 0 16.000000 16.000000"
 preserveAspectRatio="xMidYMid meet">

<g transform="translate(0.000000,16.000000) scale(0.100000,-0.100000)"
fill="#000000" stroke="none">
<path d="M10 152 c0 -4 9 -8 20 -8 11 0 20 4 20 8 0 4 -9 8 -20 8 -11 0 -20
-4 -20 -8z"/>
<path d="M27 113 c9 -25 24 -43 35 -43 6 0 8 6 5 14 -3 7 0 19 6 25 9 9 8 11
-6 5 -10 -4 -16 -13 -13 -21 3 -8 1 -11 -4 -8 -6 3 -10 15 -10 26 0 10 -4 19
-10 19 -5 0 -7 -8 -3 -17z"/>
<path d="M106 88 c5 -7 2 -10 -7 -6 -8 2 -22 -4 -31 -14 -15 -15 -15 -18 -3
-18 8 0 15 5 15 10 0 6 9 10 19 10 25 0 36 16 15 24 -10 4 -13 2 -8 -6z"/>
<path d="M136 74 c-5 -14 -4 -15 9 -4 17 14 19 20 6 20 -5 0 -12 -7 -15 -16z"/>
<path d="M1 38 l-1 -38 53 2 c44 1 46 2 13 5 -36 4 -38 6 -34 34 3 16 1 29 -4
29 -4 0 -9 -15 -9 -32 l-2 -33 -7 35 -7 35 -2 -37z"/>
<path d="M128 43 c6 -3 10 -9 6 -14 -8 -14 2 -11 14 4 8 10 6 13 -11 14 -12 0
-16 -1 -9 -4z"/>
<path d="M73 33 c9 -2 23 -2 30 0 6 3 -1 5 -18 5 -16 0 -22 -2 -12 -5z"/>
</g>
</svg>
