<?xml version="1.0" standalone="no"?>
<!DOCTYPE svg PUBLIC "-//W3C//DTD SVG 20010904//EN"
 "http://www.w3.org/TR/2001/REC-SVG-20010904/DTD/svg10.dtd">
<svg version="1.0" xmlns="http://www.w3.org/2000/svg"
 width="16.000000pt" height="16.000000pt" viewBox="0 0 16.000000 16.000000"
 preserveAspectRatio="xMidYMid meet">

<g transform="translate(0.000000,16.000000) scale(0.100000,-0.100000)"
fill="#000000" stroke="none">
<path d="M22 155 c7 -8 108 -9 115 -1 3 3 -22 6 -57 6 -35 0 -61 -2 -58 -5z"/>
<path d="M10 123 c0 -5 32 -8 70 -8 39 0 70 3 70 8 0 4 -31 7 -70 7 -38 0 -70
-3 -70 -7z"/>
<path d="M9 51 l-4 -51 75 0 75 0 -4 51 c-2 31 -6 47 -11 39 -4 -7 -7 -27 -6
-45 l3 -31 -57 0 -57 0 3 31 c1 18 -2 38 -6 45 -5 8 -9 -8 -11 -39z"/>
<path d="M36 75 c8 -19 14 -19 14 0 0 8 -4 15 -10 15 -5 0 -7 -7 -4 -15z"/>
<path d="M110 75 c0 -8 2 -15 4 -15 2 0 6 7 10 15 3 8 1 15 -4 15 -6 0 -10 -7
-10 -15z"/>
<path d="M36 37 c3 -10 9 -15 12 -12 3 3 0 11 -7 18 -10 9 -11 8 -5 -6z"/>
<path d="M115 39 c-4 -6 -5 -12 -2 -15 2 -3 7 2 10 11 7 17 1 20 -8 4z"/>
</g>
</svg>
