<?xml version="1.0" standalone="no"?>
<!DOCTYPE svg PUBLIC "-//W3C//DTD SVG 20010904//EN"
 "http://www.w3.org/TR/2001/REC-SVG-20010904/DTD/svg10.dtd">
<svg version="1.0" xmlns="http://www.w3.org/2000/svg"
 width="666.000000pt" height="374.000000pt" viewBox="0 0 666.000000 374.000000"
 preserveAspectRatio="xMidYMid meet">

<g transform="translate(0.000000,374.000000) scale(0.100000,-0.100000)"
fill="#000000" stroke="none">
<path d="M3023 2667 c-35 -17 -63 -34 -63 -37 0 -3 95 -68 210 -144 116 -76
210 -142 210 -145 0 -9 -267 -141 -284 -141 -7 0 -76 31 -152 69 l-139 70 -38
-37 -37 -36 122 -124 c68 -68 135 -132 150 -143 l26 -19 124 44 c67 24 200 73
293 108 94 36 277 104 407 153 130 48 250 96 267 106 60 36 64 125 7 178 -43
41 -79 38 -258 -23 -92 -31 -173 -56 -182 -56 -9 0 -142 47 -296 105 -154 58
-286 105 -293 104 -6 0 -40 -14 -74 -32z"/>
<path d="M2012 2553 c-41 -20 -69 -54 -84 -104 -16 -55 2 -107 52 -153 36 -32
46 -36 94 -36 92 0 160 63 160 148 0 118 -119 196 -222 145z"/>
<path d="M1479 2471 c-46 -46 -34 -109 25 -138 29 -14 39 -14 66 -3 33 14 60
55 60 90 0 33 -53 80 -90 80 -22 0 -41 -9 -61 -29z"/>
<path d="M180 2250 l0 -150 200 0 200 0 0 -605 0 -605 183 2 182 3 3 602 2
603 198 2 197 3 3 148 3 147 -586 0 -585 0 0 -150z"/>
<path d="M4070 2281 c-107 -43 -374 -149 -592 -235 l-396 -158 10 -29 c5 -16
14 -32 19 -35 5 -3 59 9 121 26 62 18 266 74 453 125 187 51 410 112 495 136
85 23 159 46 164 50 9 8 -61 199 -72 199 -4 -1 -95 -36 -202 -79z"/>
<path d="M2445 2205 c-53 -53 -15 -149 58 -149 53 0 87 35 87 90 0 34 -5 47
-26 63 -37 29 -89 27 -119 -4z"/>
<path d="M5345 2021 c-54 -24 -75 -58 -75 -120 0 -44 4 -55 35 -85 37 -37 101
-55 147 -41 74 23 117 95 98 166 -12 42 -32 62 -83 84 -47 19 -73 19 -122 -4z"/>
<path d="M4865 1938 c-3 -7 -4 -245 -3 -528 l3 -515 123 -3 122 -3 0 531 0
530 -120 0 c-87 0 -122 -3 -125 -12z"/>
<path d="M1895 1682 c-54 -19 -120 -64 -136 -94 -18 -34 -29 -18 -29 42 l0 60
-120 0 -120 0 0 -400 0 -400 120 0 120 0 0 184 c0 213 10 279 46 317 30 31 90
49 164 49 l51 0 -3 128 c-3 146 -3 146 -93 114z"/>
<path d="M2292 1680 c-99 -35 -174 -115 -215 -228 -29 -80 -28 -243 1 -324 41
-114 114 -192 212 -229 44 -17 71 -20 135 -17 89 5 140 26 190 77 17 17 33 31
38 31 4 0 7 -22 7 -50 l0 -50 120 0 120 0 0 400 0 400 -120 0 -120 0 0 -50 c0
-27 -4 -50 -8 -50 -4 0 -23 16 -42 35 -69 71 -208 95 -318 55z m240 -200 c122
-34 164 -228 71 -331 -105 -116 -277 -51 -299 114 -16 112 67 222 171 226 11
1 36 -4 57 -9z"/>
<path d="M4198 1681 c-75 -24 -118 -52 -172 -112 -70 -78 -90 -141 -90 -279 0
-141 21 -203 94 -283 86 -94 192 -134 337 -125 140 8 260 83 319 200 13 26 24
52 24 58 0 6 -47 10 -130 10 -119 0 -130 -2 -140 -20 -27 -50 -137 -67 -197
-30 -36 22 -63 66 -63 105 l0 25 275 0 275 0 0 78 c0 136 -48 241 -145 314
-97 74 -261 99 -387 59z m214 -197 c35 -18 68 -61 68 -90 l0 -24 -150 0 c-167
0 -170 2 -130 67 40 66 133 87 212 47z"/>
<path d="M6125 1691 c-48 -12 -103 -42 -135 -71 l-30 -28 0 49 0 49 -125 0
-125 0 0 -400 0 -400 125 0 125 0 0 240 c0 260 4 283 54 329 20 19 40 26 85
29 71 5 110 -12 143 -65 22 -37 23 -46 26 -285 l4 -248 119 0 120 0 -3 288
c-3 286 -3 287 -29 343 -32 68 -87 125 -146 151 -48 21 -161 32 -208 19z"/>
<path d="M3010 1678 c0 -7 62 -187 137 -401 l138 -387 154 2 154 3 79 225 c44
124 106 299 139 388 32 90 59 168 59 173 0 5 -58 9 -130 9 -71 0 -130 -2 -130
-5 0 -3 -30 -103 -67 -223 -36 -119 -74 -244 -83 -277 -22 -74 -16 -87 -109
221 -39 127 -75 243 -80 257 l-11 27 -125 0 c-93 0 -125 -3 -125 -12z"/>
<path d="M5290 1290 l0 -400 120 0 120 0 0 400 0 400 -120 0 -120 0 0 -400z"/>
</g>
</svg>
